<svg xmlns="http://www.w3.org/2000/svg" width="50" height="50" viewBox="0 0 50 50" fill="none"> <path d="M28.8811 15H20.1189C17.2915 15 15 17.2919 15 20.1189V28.8811C15 31.7085 17.2919 34 20.1193 34H28.8807C31.7081 34 34 31.7081 34 28.8807V20.1189C34 17.2915 31.7081 15 28.8807 15H28.8811Z" stroke="#959595" stroke-miterlimit="10"/> <path d="M24.5 29C26.9853 29 29 26.9853 29 24.5C29 22.0147 26.9853 20 24.5 20C22.0147 20 20 22.0147 20 24.5C20 26.9853 22.0147 29 24.5 29Z" stroke="#959595" stroke-miterlimit="10"/> <path d="M30 20C30.5523 20 31 19.5523 31 19C31 18.4477 30.5523 18 30 18C29.4477 18 29 18.4477 29 19C29 19.5523 29.4477 20 30 20Z" fill="#959595"/> </svg>