<svg xmlns="http://www.w3.org/2000/svg" width="50" height="50" viewBox="0 0 50 50" fill="none"> <path d="M25.0018 13C22.901 12.9998 20.837 13.551 19.0161 14.5986C17.1951 15.6462 15.6811 17.1534 14.6254 18.9695C13.5697 20.7857 13.0093 22.8471 13.0001 24.9478C12.991 27.0485 13.5335 29.1147 14.5733 30.94L13.4933 34.732C13.4241 34.9782 13.4217 35.2384 13.4864 35.4859C13.551 35.7334 13.6805 35.9591 13.8613 36.14C14.0422 36.3208 14.268 36.4503 14.5154 36.5149C14.7629 36.5796 15.0231 36.5772 15.2694 36.508L19.0615 35.428C20.6584 36.3372 22.4428 36.8676 24.277 36.9782C26.1113 37.0889 27.9465 36.7768 29.6411 36.0661C31.3356 35.3553 32.8444 34.265 34.0509 32.879C35.2575 31.4931 36.1296 29.8485 36.6 28.0722C37.0705 26.296 37.1267 24.4354 36.7644 22.6339C36.4021 20.8325 35.6309 19.1383 34.5102 17.682C33.3896 16.2257 31.9495 15.0462 30.3009 14.2344C28.6523 13.4227 26.8394 13.0003 25.0018 13V13ZM25.0018 36.04C23.0162 36.0446 21.0666 35.5095 19.3615 34.492C19.2871 34.4541 19.205 34.4336 19.1215 34.432H18.9895L15.0054 35.572C14.924 35.5938 14.8382 35.5939 14.7568 35.5721C14.6754 35.5503 14.6011 35.5074 14.5415 35.4478C14.4819 35.3882 14.4391 35.314 14.4173 35.2325C14.3955 35.1511 14.3955 35.0654 14.4173 34.984L15.5574 31C15.5911 30.8745 15.5739 30.7408 15.5094 30.628C14.2676 28.5324 13.7537 26.0849 14.0479 23.6669C14.342 21.2488 15.4277 18.9959 17.1357 17.2592C18.8437 15.5224 21.0782 14.3992 23.4911 14.0646C25.904 13.7301 28.3598 14.2029 30.476 15.4094C32.5921 16.6159 34.2499 18.4884 35.1909 20.7352C36.1319 22.982 36.3034 25.4769 35.6787 27.8313C35.054 30.1857 33.6681 32.2674 31.7369 33.7522C29.8058 35.2369 27.4378 36.0413 25.0018 36.04V36.04ZM31.062 27.22L28.6139 25.828C28.3907 25.7001 28.1375 25.6339 27.8803 25.636C27.623 25.6381 27.371 25.7085 27.1499 25.84L25.4938 26.836C24.4962 26.3187 23.6831 25.5055 23.1657 24.508L24.1617 22.852C24.2932 22.6309 24.3637 22.3789 24.3658 22.1216C24.3679 21.8644 24.3016 21.6112 24.1737 21.388L22.7817 18.94C22.6661 18.7398 22.4999 18.5735 22.2999 18.4576C22.0998 18.3418 21.8728 18.2806 21.6416 18.28C20.6252 18.28 19.6503 18.6829 18.9305 19.4005C18.2106 20.118 17.8047 21.0916 17.8015 22.108C17.7999 23.4327 18.0595 24.7448 18.5654 25.9691C19.0712 27.1935 19.8135 28.3061 20.7497 29.2434C21.6859 30.1807 22.7977 30.9242 24.0215 31.4316C25.2453 31.9389 26.5571 32.2 27.8819 32.2H27.8939C28.9103 32.1968 29.884 31.7909 30.6015 31.0711C31.3191 30.3513 31.722 29.3764 31.722 28.36C31.7215 28.1288 31.6602 27.9018 31.5444 27.7018C31.4286 27.5017 31.2622 27.3356 31.062 27.22V27.22ZM27.8939 31.24H27.8819C25.4619 31.2368 23.1421 30.2733 21.4321 28.5611C19.722 26.8488 18.7615 24.5279 18.7615 22.108C18.7647 21.3463 19.0695 20.6168 19.6093 20.0793C20.1491 19.5418 20.8799 19.24 21.6416 19.24C21.7031 19.2408 21.7632 19.2579 21.8159 19.2896C21.8686 19.3212 21.912 19.3662 21.9416 19.42L23.3457 21.868C23.3867 21.9435 23.4081 22.0281 23.4081 22.114C23.4081 22.1999 23.3867 22.2845 23.3457 22.36L22.2177 24.232C22.1761 24.2978 22.1521 24.3732 22.1479 24.4509C22.1437 24.5286 22.1594 24.6061 22.1937 24.676C22.8186 26.0685 23.9332 27.1831 25.3258 27.808C25.3957 27.8422 25.4732 27.858 25.5509 27.8538C25.6286 27.8496 25.704 27.8256 25.7698 27.784L27.6419 26.656C27.7174 26.615 27.802 26.5936 27.8879 26.5936C27.9738 26.5936 28.0584 26.615 28.1339 26.656L30.582 28.06C30.6358 28.0897 30.6808 28.133 30.7124 28.1857C30.7441 28.2384 30.7612 28.2986 30.762 28.36C30.762 29.1217 30.4602 29.8525 29.9227 30.3922C29.3851 30.932 28.6557 31.2368 27.8939 31.24V31.24Z" fill="#959595"/> </svg>