<svg xmlns="http://www.w3.org/2000/svg" width="934" height="934" viewBox="0 0 934 934" fill="none"> <path d="M672 215.488H737.953C750.323 215.488 760.354 225.514 760.354 237.889V561.442C760.354 573.812 750.328 583.843 737.953 583.843H221.506C209.136 583.843 199.105 573.816 199.105 561.442V237.881C199.105 225.511 209.132 215.48 221.506 215.48L556.267 215.486" stroke="#333333" stroke-width="14.9333" stroke-miterlimit="10" stroke-linecap="round"/> <path d="M643.104 215.488H642.172" stroke="#333333" stroke-width="14.9333" stroke-miterlimit="10" stroke-linecap="round"/> <path d="M204.662 223.254L384.512 383.608" stroke="#333333" stroke-width="14.9333" stroke-miterlimit="10" stroke-linecap="round"/> <path d="M584.789 375.722L755.343 223.73" stroke="#333333" stroke-width="14.9333" stroke-miterlimit="10" stroke-linecap="round"/> <path d="M372.512 435.83L388.929 421.627" stroke="#333333" stroke-width="14.9333" stroke-miterlimit="10" stroke-linecap="round"/> <path d="M207.35 578.666L315.422 485.176" stroke="#333333" stroke-width="14.9333" stroke-miterlimit="10" stroke-linecap="round"/> <path d="M579.264 428.736L749.967 574.082" stroke="#333333" stroke-width="14.9333" stroke-miterlimit="10" stroke-linecap="round" stroke-linejoin="round"/> <path d="M586.133 392.224C586.133 447.891 541.003 493.024 485.333 493.024C429.663 493.024 384.533 447.894 384.533 392.224C384.533 336.552 429.663 291.424 485.333 291.424C541.003 291.424 586.133 336.554 586.133 392.224Z" stroke="#333333" stroke-width="14.9333" stroke-miterlimit="10" stroke-linecap="round"/> <path d="M518.36 455.72C506.673 460.975 496.548 462.725 482.73 462.725C450.407 462.725 421.98 439.558 421.98 401.392C421.98 361.668 450.792 327.209 494.803 327.209C529.068 327.209 553.606 350.766 553.606 383.48C553.606 411.906 537.642 429.824 516.611 429.824C507.455 429.824 500.84 425.152 499.862 414.829H499.471C493.44 424.761 484.679 429.824 474.351 429.824C461.695 429.824 452.539 420.475 452.539 404.512C452.539 380.752 470.066 359.142 498.107 359.142C506.67 359.142 516.41 361.283 521.274 364.012L515.435 400.033C513.487 411.523 514.847 416.783 520.305 416.976C528.675 417.169 539.19 406.46 539.19 384.069C539.19 358.757 522.836 339.091 492.66 339.091C462.868 339.091 436.78 362.455 436.78 399.643C436.78 432.153 457.613 450.653 486.629 450.653C496.561 450.653 507.072 448.513 514.858 444.424L518.36 455.72ZM501.038 375.304C499.475 374.913 497.527 374.528 494.996 374.528C482.147 374.528 472.023 387.184 472.023 402.178C472.023 409.579 475.33 414.251 481.757 414.251C488.96 414.251 496.555 405.095 498.309 393.809L501.038 375.304Z" fill="#333333"/> </svg>