<svg xmlns="http://www.w3.org/2000/svg" width="50" height="50" viewBox="0 0 50 50" fill="none"> <path d="M37.4755 13.3568C37.2696 13.1825 37.0192 13.0665 36.7511 13.0213C36.483 12.976 36.2074 13.0033 35.9539 13.1001L12.9433 21.9641C12.6443 22.0808 12.3916 22.2888 12.2227 22.5574C12.0538 22.8259 11.9777 23.1407 12.0057 23.455C12.0337 23.7693 12.1643 24.0664 12.3781 24.3022C12.592 24.538 12.8776 24.6999 13.1928 24.764L19.4412 25.9988V33.5547C19.4374 33.8458 19.5235 34.1311 19.6882 34.3734C19.8529 34.6156 20.0886 34.8033 20.3641 34.9118C20.5506 34.9846 20.7495 35.0219 20.9503 35.0218C21.1451 35.022 21.338 34.9843 21.5179 34.9109C21.6977 34.8374 21.8609 34.7297 21.9979 34.5939L25.5649 31.0972L30.828 35.6331C31.0977 35.8725 31.4495 36.0035 31.8133 35.9999C31.9701 35.9995 32.1258 35.9748 32.2747 35.9266C32.5199 35.8477 32.7404 35.7085 32.9151 35.5223C33.0898 35.3361 33.2128 35.109 33.2725 34.8629L37.9619 14.7873C38.0233 14.5281 38.0103 14.2573 37.9245 14.0048C37.8386 13.7524 37.6832 13.5281 37.4755 13.3568V13.3568ZM12.9932 23.3702C12.9784 23.2642 13.0013 23.1565 13.0581 23.0651C13.1149 22.9738 13.2021 22.9045 13.305 22.8689L34.4074 14.7506L19.8278 25.0696L13.3923 23.8103C13.2851 23.7913 13.1876 23.7377 13.1152 23.6579C13.0428 23.5781 12.9999 23.4767 12.9932 23.3702ZM21.287 33.897C21.2192 33.966 21.1318 34.0135 21.0362 34.0331C20.9405 34.0527 20.841 34.0436 20.7507 34.007C20.6588 33.9706 20.58 33.9081 20.5244 33.8275C20.4689 33.7469 20.4391 33.6519 20.4389 33.5547V26.6713L24.8165 30.4492L21.287 33.897ZM36.9891 14.5795L32.2997 34.6428C32.281 34.726 32.2399 34.8028 32.1806 34.8651C32.1214 34.9275 32.0462 34.9732 31.9629 34.9974C31.8824 35.0257 31.7955 35.0316 31.7118 35.0143C31.6281 34.997 31.551 34.9573 31.489 34.8996L20.7383 25.632L36.9142 14.176C36.955 14.2343 36.9828 14.3003 36.9957 14.3699C37.0086 14.4394 37.0063 14.5108 36.9891 14.5795V14.5795Z" fill="#333333"/> </svg>