<svg xmlns="http://www.w3.org/2000/svg" width="501" height="624" viewBox="0 0 501 624" fill="none"> <path d="M97.5418 1.22656C188.493 15.2682 279.758 29.6675 369.733 49.0875C394.393 54.41 439.834 63.5891 465.735 78.6157C477.245 85.2935 488.486 102.008 494.353 113.672C501.902 128.678 502.566 144.263 496.173 159.853C485.977 184.713 463.014 197.989 440.685 210.583C420.998 221.686 396.946 230.991 381.768 248.508C367.79 264.64 367.12 286.824 379.039 304.136C386.596 315.11 397.775 322.891 408.148 330.935C417.053 337.841 425.557 344.272 421.792 356.685C417.224 371.747 406.318 382.721 393.104 390.691C366.564 406.699 335.956 416.937 306.199 424.907C240.02 442.634 173.297 458.398 111.396 488.792C61.4055 513.338 4.55323 563.528 0.560547 623.418" stroke="#F9F9F9" stroke-opacity="0.15" stroke-width="0.5" stroke-linecap="round"/> </svg>